<svg width="71" height="70" viewBox="0 0 71 70" fill="none" xmlns="http://www.w3.org/2000/svg">
<path fill-rule="evenodd" clip-rule="evenodd" d="M15.5799 32.9546C16.7206 32.9546 17.6489 33.8838 17.6489 35.0243C17.6489 36.1649 16.7206 37.0934 15.5799 37.0934C14.4393 37.0934 13.5118 36.1651 13.5118 35.0243C13.5118 33.8836 14.4393 32.9546 15.5799 32.9546ZM28.9179 19.7874C30.0585 19.7874 30.9862 20.7158 30.9862 21.8564C30.9862 22.9971 30.0587 23.9263 28.9179 23.9263C27.7765 23.9263 26.849 22.9971 26.849 21.8564C26.849 20.7158 27.7765 19.7874 28.9179 19.7874ZM42.2718 32.9546C43.4124 32.9546 44.3408 33.8838 44.3408 35.0243C44.3408 36.1649 43.4124 37.0934 42.2718 37.0934C41.1311 37.0934 40.2028 36.1651 40.2028 35.0243C40.2028 33.8836 41.1311 32.9546 42.2718 32.9546ZM55.6082 19.7874C56.7488 19.7874 57.6772 20.7158 57.6772 21.8564C57.6772 22.9971 56.7488 23.9263 55.6082 23.9263C54.4677 23.9263 53.5392 22.9971 53.5392 21.8564C53.5393 20.7158 54.4677 19.7874 55.6082 19.7874ZM15.5799 39.0054C18.6814 39.0054 20.5669 35.61 19.0009 32.99L26.8399 25.2501C28.1146 26.0344 29.7225 26.0351 30.9969 25.2493L38.8491 32.9925C37.2866 35.6186 39.1762 39.0054 42.2718 39.0054C45.3639 39.0054 47.2623 35.623 45.692 32.99L53.5302 25.2501C56.1635 26.8679 59.5884 24.9709 59.5884 21.8562C59.5884 19.6617 57.8027 17.876 55.6082 17.876C52.5169 17.876 50.6175 21.2573 52.188 23.8906L44.349 31.6305C43.0746 30.8452 41.4656 30.8465 40.1913 31.6313L32.3391 23.888C33.9049 21.2626 32.0135 17.876 28.9181 17.876C25.828 17.876 23.9279 21.2534 25.497 23.8906L17.658 31.6305C15.0311 30.0142 11.5998 31.905 11.5998 35.0242C11.5997 37.2188 13.3854 39.0054 15.5799 39.0054ZM52.4977 58.3555V31.8874H58.7707V58.3555H52.4977ZM39.1531 58.3555V44.0759H45.4252V58.3556L39.1531 58.3555ZM25.8076 58.3555V34.2009H32.0814V58.3555H25.8076ZM12.4636 58.3555V46.9228H18.7357V58.3555H12.4636ZM20.6479 54.443H23.8954V58.3555H20.6479V54.443ZM33.9934 54.443H37.2409V58.3555H33.9934V54.443ZM47.3373 54.443H50.5857V58.3555H47.3373V54.443ZM9.09953 52.5311H10.5515V45.9673C10.5515 45.4395 10.9802 45.0108 11.5071 45.0108H19.6922C20.2192 45.0108 20.6479 45.4395 20.6479 45.9673V52.5311H23.8954V33.2452C23.8954 32.7157 24.3241 32.2887 24.8519 32.2887H33.037C33.5648 32.2887 33.9935 32.7157 33.9935 33.2452V52.5309H37.2411V43.1193C37.2411 42.5915 37.6689 42.1636 38.1967 42.1636H46.381C46.9104 42.1636 47.3375 42.5915 47.3375 43.1193V52.5309H50.5859V30.9317C50.5859 30.4039 51.0146 29.9761 51.5424 29.9761H59.7266C60.2544 29.9761 60.6831 30.4039 60.6831 30.9317V52.5309H62.1343C63.4971 52.5309 64.6063 51.4225 64.6063 50.0589V14.1165C64.6063 12.7544 63.4971 11.6443 62.1343 11.6443H9.09953C7.73747 11.6443 6.62671 12.7544 6.62671 14.1165V50.0589C6.62671 51.4225 7.73747 52.5311 9.09953 52.5311ZM66.2085 58.3555H60.6828V54.443H62.1341C64.5507 54.443 66.5182 52.4765 66.5182 50.0589V14.1165C66.5182 11.6989 64.5507 9.73236 62.1341 9.73236H9.09953C6.68285 9.73236 4.71543 11.6989 4.71543 14.1165V50.0589C4.71543 52.4765 6.68285 54.443 9.09953 54.443H10.5515V58.3555H5.02595C4.49815 58.3555 4.07031 58.7833 4.07031 59.3111C4.07031 59.8398 4.49815 60.2676 5.02595 60.2676H66.2083C66.7353 60.2676 67.164 59.8398 67.164 59.3111C67.1641 58.7833 66.7353 58.3555 66.2085 58.3555Z" fill="white"/>
</svg>
