<svg width="71" height="70" viewBox="0 0 71 70" fill="none" xmlns="http://www.w3.org/2000/svg">
<path d="M6.93127 12.3792C6.93127 11.8521 7.36139 11.4219 7.88857 11.4219C8.41563 11.4219 8.84574 11.852 8.84574 12.3792C8.84574 12.9062 8.41563 13.3363 7.88857 13.3363C7.36139 13.3363 6.93127 12.9062 6.93127 12.3792ZM11.2252 13.3363C11.7522 13.3363 12.1824 12.9062 12.1824 12.3792C12.1824 11.8521 11.7522 11.4219 11.2252 11.4219C10.6981 11.4219 10.2679 11.852 10.2679 12.3792C10.2679 12.9062 10.6981 13.3363 11.2252 13.3363ZM14.562 13.3363C15.089 13.3363 15.5191 12.9062 15.5191 12.3792C15.5191 11.8521 15.089 11.4219 14.562 11.4219C14.0349 11.4219 13.6048 11.852 13.6048 12.3792C13.6048 12.9062 14.0349 13.3363 14.562 13.3363ZM21.6192 18.9406C21.0907 18.9406 20.6622 19.369 20.6622 19.8976V52.4438C20.6622 52.9723 21.0907 53.4008 21.6192 53.4008C22.1478 53.4008 22.5763 52.9723 22.5763 52.4438V19.8976C22.5763 19.3689 22.1478 18.9406 21.6192 18.9406ZM16.3099 20.4404H7.88844C7.35988 20.4404 6.93141 20.8688 6.93141 21.3974C6.93141 21.926 7.35988 22.3544 7.88844 22.3544H16.3099C16.8385 22.3544 17.2669 21.926 17.2669 21.3974C17.2669 20.8688 16.8385 20.4404 16.3099 20.4404ZM16.3099 24.6607H7.88844C7.35988 24.6607 6.93141 25.0892 6.93141 25.6178C6.93141 26.1463 7.35988 26.5748 7.88844 26.5748H16.3099C16.8385 26.5748 17.2669 26.1463 17.2669 25.6178C17.2669 25.0892 16.8385 24.6607 16.3099 24.6607ZM16.3099 28.8811H7.88844C7.35988 28.8811 6.93141 29.3096 6.93141 29.8381C6.93141 30.3667 7.35988 30.7952 7.88844 30.7952H16.3099C16.8385 30.7952 17.2669 30.3667 17.2669 29.8381C17.2669 29.3096 16.8385 28.8811 16.3099 28.8811ZM16.3099 33.1015H7.88844C7.35988 33.1015 6.93141 33.53 6.93141 34.0585C6.93141 34.5871 7.35988 35.0155 7.88844 35.0155H16.3099C16.8385 35.0155 17.2669 34.5871 17.2669 34.0585C17.2669 33.53 16.8385 33.1015 16.3099 33.1015ZM16.3099 37.3219H7.88844C7.35988 37.3219 6.93141 37.7503 6.93141 38.2789C6.93141 38.8074 7.35988 39.2359 7.88844 39.2359H16.3099C16.8385 39.2359 17.2669 38.8074 17.2669 38.2789C17.2669 37.7503 16.8385 37.3219 16.3099 37.3219ZM16.3099 41.5461H7.88844C7.35988 41.5461 6.93141 41.9745 6.93141 42.5031C6.93141 43.0316 7.35988 43.4601 7.88844 43.4601H16.3099C16.8385 43.4601 17.2669 43.0316 17.2669 42.5031C17.2669 41.9745 16.8385 41.5461 16.3099 41.5461ZM16.3099 45.7666H7.88844C7.35988 45.7666 6.93141 46.195 6.93141 46.7236C6.93141 47.2521 7.35988 47.6806 7.88844 47.6806H16.3099C16.8385 47.6806 17.2669 47.2521 17.2669 46.7236C17.2669 46.195 16.8385 45.7666 16.3099 45.7666ZM16.3099 49.9869H7.88844C7.35988 49.9869 6.93141 50.4154 6.93141 50.944C6.93141 51.4725 7.35988 51.901 7.88844 51.901H16.3099C16.8385 51.901 17.2669 51.4725 17.2669 50.944C17.2669 50.4154 16.8385 49.9869 16.3099 49.9869ZM45.3522 27.381V27.8693C45.3522 29.2265 44.401 30.3636 43.1308 30.6548L44.7805 33.5983C45.0389 34.0595 44.8745 34.6427 44.4134 34.9011C44.2655 34.984 44.1048 35.0235 43.9465 35.0235C43.6114 35.0235 43.2862 34.8472 43.1107 34.5342L40.9782 30.7293H39.9342V34.0663C39.9342 34.5949 39.5057 35.0233 38.9772 35.0233C38.4486 35.0233 38.0202 34.5949 38.0202 34.0663V25.4783C38.0202 24.9498 38.4486 24.5213 38.9772 24.5213H42.4922C44.0694 24.5212 45.3522 25.8041 45.3522 27.381ZM43.4382 27.381C43.4382 26.8595 43.0138 26.4352 42.4924 26.4352H39.9344V28.8152H42.4924C43.0138 28.8152 43.4382 28.3908 43.4382 27.8694V27.381ZM47.4803 35.0232C48.0088 35.0232 48.4373 34.5947 48.4373 34.0662V28.0898L50.385 30.3905C50.5668 30.6053 50.834 30.7291 51.1155 30.7291C51.397 30.7291 51.6641 30.6053 51.846 30.3905L53.7935 28.0898V34.066C53.7935 34.5946 54.222 35.0231 54.7506 35.0231C55.2791 35.0231 55.7076 34.5946 55.7076 34.066V25.478C55.7076 25.0765 55.4569 24.7176 55.0798 24.5794C54.7031 24.4413 54.2794 24.5533 54.0201 24.8597L51.1155 28.2909L48.2108 24.8597C47.9514 24.5531 47.528 24.4412 47.1511 24.5794C46.774 24.7176 46.5232 25.0765 46.5232 25.478V34.066C46.5232 34.5949 46.9517 35.0232 47.4803 35.0232ZM31.9939 26.4352H33.4432C34.0695 26.4352 34.5791 26.9448 34.5791 27.5709C34.5791 28.0995 35.0076 28.528 35.5361 28.528C36.0647 28.528 36.4931 28.0995 36.4931 27.5709C36.4931 25.8893 35.125 24.5212 33.4432 24.5212H31.9939C30.3121 24.5212 28.9439 25.8893 28.9439 27.5709V31.9774C28.9439 33.6568 30.3121 35.0232 31.9939 35.0232H33.4432C35.125 35.0232 36.4931 33.6568 36.4931 31.9774C36.4931 31.4488 36.0647 31.0204 35.5361 31.0204C35.0076 31.0204 34.5791 31.4488 34.5791 31.9774C34.5791 32.6014 34.0695 33.1091 33.4432 33.1091H31.9939C31.3676 33.1091 30.858 32.6014 30.858 31.9774V27.5709C30.8581 26.9448 31.3676 26.4352 31.9939 26.4352ZM69.4346 48.7465V52.4127C69.4346 52.8643 69.1188 53.2545 68.6771 53.3487L66.8976 53.7282L66.3842 54.9654L67.3737 56.4923C67.6192 56.8711 67.5666 57.3702 67.2473 57.6895L64.6546 60.2823C64.3351 60.6016 63.8363 60.6541 63.4572 60.4086L61.9297 59.4185L60.6933 59.9294L60.3138 61.7115C60.2197 62.1534 59.8294 62.4692 59.3777 62.4692H55.7116C55.2598 62.4692 54.8696 62.1533 54.7754 61.7115L54.3961 59.9294L53.1597 59.4185L51.632 60.4086C51.2532 60.6541 50.7541 60.6016 50.4346 60.2823L47.8419 57.6895C47.6599 57.5077 47.568 57.2673 47.565 57.0243H5.19494C3.22496 57.0243 1.62207 55.4231 1.62207 53.4552V11.1041C1.62207 9.134 3.22496 7.53125 5.19494 7.53125H60.4204C62.3905 7.53125 63.9934 9.134 63.9934 11.1041V40.6001C64.2352 40.6041 64.4739 40.6961 64.6547 40.877L67.2475 43.4695C67.5669 43.7888 67.6196 44.2878 67.3739 44.6668L66.3845 46.1937L66.8979 47.4308L68.6774 47.8104C69.1188 47.9047 69.4346 48.2949 69.4346 48.7465ZM3.53613 11.1041V15.3131H62.0792V11.1041C62.0792 10.1895 61.3351 9.44531 60.4203 9.44531H5.19494C4.28016 9.44518 3.53613 10.1893 3.53613 11.1041ZM5.19494 55.1102H48.6142L48.7088 54.9646L48.1957 53.7282L46.4163 53.3487C45.9747 53.2545 45.6589 52.8643 45.6589 52.4127V48.7465C45.6589 48.2949 45.9747 47.9047 46.4163 47.8105L48.1957 47.431L48.7088 46.1946L47.7164 44.6679C47.47 44.2889 47.5224 43.7892 47.8422 43.4695L50.4349 40.877C50.7543 40.5576 51.2534 40.5051 51.632 40.7506L53.1598 41.7407L54.3962 41.2298L54.7756 39.4477C54.8696 39.006 55.26 38.69 55.7117 38.69H59.3778C59.8295 38.69 60.2197 39.0058 60.3139 39.4477L60.6935 41.2298L61.9298 41.7407L62.0792 41.6439V17.2271H3.53613V53.4551C3.53613 54.3678 4.28016 55.1102 5.19494 55.1102ZM67.5205 49.5209L66.0069 49.1981C65.699 49.1324 65.4432 48.9196 65.3225 48.6289L64.4236 46.4625C64.3027 46.1715 64.3329 45.8396 64.5044 45.5752L65.3465 44.2755L63.8488 42.7778L62.5491 43.6201C62.2851 43.7912 61.9539 43.8215 61.6632 43.7014L59.4969 42.8062C59.2055 42.6857 58.9921 42.4295 58.9264 42.1211L58.6033 40.6039H56.4865L56.1636 42.1211C56.0979 42.4295 55.8844 42.6857 55.593 42.8062L53.4264 43.7014C53.1361 43.8215 52.8045 43.7912 52.5405 43.6201L51.241 42.7778L49.7441 44.2747L50.5887 45.5739C50.7607 45.8385 50.7911 46.1708 50.6702 46.4623L49.7713 48.6288C49.6505 48.9194 49.3947 49.1323 49.0869 49.1979L47.5734 49.5207V51.6381L49.0869 51.9609C49.3947 52.0265 49.6505 52.2394 49.7713 52.53L50.6702 54.6965C50.7912 54.988 50.7607 55.3203 50.5887 55.5849L49.7441 56.8843L51.241 58.3812L52.5405 57.5389C52.8046 57.3677 53.1358 57.3373 53.4266 57.4575L55.593 58.3528C55.8845 58.4732 56.0978 58.7294 56.1636 59.0379L56.4865 60.555H58.6033L58.9264 59.0379C58.992 58.7294 59.2055 58.4732 59.4969 58.3528L61.6632 57.4575C61.9541 57.3373 62.2854 57.3678 62.5493 57.5389L63.8488 58.3812L65.3465 56.8834L64.5044 55.5838C64.3329 55.3192 64.3027 54.9874 64.4236 54.6965L65.3225 52.53C65.4432 52.2394 65.699 52.0265 66.0069 51.9609L67.5205 51.6382V49.5209ZM63.191 50.5796C63.191 53.693 60.6582 56.226 57.5448 56.226C54.4315 56.226 51.8983 53.6931 51.8983 50.5796C51.8983 47.4661 54.4313 44.9333 57.5448 44.9333C60.6582 44.9333 63.191 47.4662 63.191 50.5796ZM61.277 50.5796C61.277 48.5216 59.6027 46.8473 57.5448 46.8473C55.4868 46.8473 53.8124 48.5216 53.8124 50.5796C53.8124 52.6376 55.4868 54.3119 57.5448 54.3119C59.6027 54.3119 61.277 52.6376 61.277 50.5796Z" fill="white"/>
</svg>
