<svg width="71" height="70" viewBox="0 0 71 70" fill="none" xmlns="http://www.w3.org/2000/svg">
<path d="M61.9425 19.9507H57.4031V18.7947C57.4031 15.6022 55.5046 12.8447 52.7894 11.5719C54.2213 10.5326 55.1652 8.83558 55.1652 6.9371C55.1652 3.77649 52.5879 1.19922 49.4273 1.19922C46.2667 1.19922 43.6894 3.77649 43.6894 6.9371C43.6894 8.84619 44.6228 10.5326 46.0652 11.5719C44.5061 12.3038 43.2228 13.5129 42.4061 15.0189C41.5894 13.5129 40.3061 12.3038 38.747 11.5719C40.1788 10.5326 41.1228 8.83558 41.1228 6.9371C41.1228 3.77649 38.5455 1.19922 35.3849 1.19922C32.2243 1.19922 29.647 3.77649 29.647 6.9371C29.647 8.84619 30.5804 10.5326 32.0228 11.5719C30.4637 12.3038 29.1803 13.5129 28.3637 15.0189C27.547 13.5129 26.2637 12.3038 24.7046 11.5719C26.1364 10.5326 27.0804 8.83558 27.0804 6.9371C27.0804 3.77649 24.5031 1.19922 21.3425 1.19922C18.1819 1.19922 15.6046 3.77649 15.6046 6.9371C15.6046 8.84619 16.5379 10.5326 17.9804 11.5719C15.2546 12.8447 13.3667 15.6022 13.3667 18.7947V19.9507H8.7849C8.27581 19.9507 7.85156 20.3644 7.85156 20.8841V25.6144C7.85156 26.1235 8.2652 26.5477 8.7849 26.5477H12.1152L29.6682 45.2038C29.7955 45.5644 30.1349 45.8189 30.5485 45.8189C31.0576 45.8189 31.4819 45.4053 31.4819 44.8856V44.7689C31.4819 44.5356 31.397 44.3022 31.2273 44.1325L14.6607 26.5371H56.0667L39.5107 44.1325C39.3516 44.3022 39.2561 44.5356 39.2561 44.7689V44.8856C39.2561 45.3947 39.6697 45.8189 40.1894 45.8189C40.5925 45.8189 40.9425 45.5644 41.0697 45.2038L58.6228 26.5477H61.9425C62.4516 26.5477 62.8758 26.1341 62.8758 25.6144V20.8841C62.8652 20.375 62.4516 19.9507 61.9425 19.9507ZM45.5349 6.9371C45.5349 4.79467 47.2743 3.05528 49.4167 3.05528C51.5591 3.05528 53.2985 4.79467 53.2985 6.9371C53.2985 9.07952 51.5591 10.8189 49.4167 10.8189C47.2743 10.8189 45.5349 9.07952 45.5349 6.9371ZM49.4167 12.675C52.8 12.675 55.547 15.4219 55.547 18.8053V19.9613H43.35V18.8053C43.35 18.6144 43.3394 18.4341 43.3182 18.2432C43.6046 15.125 46.2243 12.675 49.4167 12.675ZM31.4819 6.9371C31.4819 4.79467 33.2213 3.05528 35.3637 3.05528C37.5061 3.05528 39.2455 4.79467 39.2455 6.9371C39.2455 9.07952 37.5061 10.8189 35.3637 10.8189C33.2213 10.8189 31.4819 9.07952 31.4819 6.9371ZM35.3637 12.675C38.5561 12.675 41.1758 15.125 41.4622 18.2432C41.4516 18.4235 41.4304 18.6144 41.4304 18.8053V19.9613H29.297V18.8053C29.297 18.6144 29.2864 18.4341 29.2652 18.2432C29.5516 15.125 32.1713 12.675 35.3637 12.675ZM17.4288 6.9371C17.4288 4.79467 19.1682 3.05528 21.3107 3.05528C23.4531 3.05528 25.1925 4.79467 25.1925 6.9371C25.1925 9.07952 23.4531 10.8189 21.3107 10.8189C19.1682 10.8189 17.4288 9.07952 17.4288 6.9371ZM15.191 18.7947C15.191 15.4219 17.9379 12.6644 21.3213 12.6644C24.5137 12.6644 27.1334 15.1144 27.4197 18.2326C27.4091 18.4129 27.3879 18.6038 27.3879 18.7947V19.9507H15.191V18.7947ZM61.0091 24.681H9.71823V21.8068H61.0197V24.681H61.0091Z" fill="white"/>
<path d="M35.3641 47.3242C29.4459 47.3242 24.6201 52.1394 24.6201 58.0682C24.6201 63.9863 29.4353 68.8121 35.3641 68.8121C41.2928 68.8121 46.108 63.9969 46.108 58.0682C46.108 52.15 41.2928 47.3242 35.3641 47.3242ZM35.3641 66.956C30.4641 66.956 26.4762 62.9682 26.4762 58.0682C26.4762 53.1682 30.4641 49.1803 35.3641 49.1803C40.2641 49.1803 44.2519 53.1682 44.2519 58.0682C44.2519 62.9682 40.2641 66.956 35.3641 66.956Z" fill="white"/>
<path d="M35.3632 54.1869C36.1799 54.1869 36.8375 54.8551 36.8375 55.6611C36.8375 56.1702 37.2511 56.5945 37.7708 56.5945C38.2905 56.5945 38.7041 56.1808 38.7041 55.6611C38.7041 54.1445 37.686 52.8823 36.2966 52.4793V51.8005C36.2966 51.2914 35.8829 50.8672 35.3632 50.8672C34.8435 50.8672 34.4299 51.2808 34.4299 51.8005V52.4793C33.0405 52.8823 32.0223 54.1551 32.0223 55.6611C32.0223 57.496 33.5178 58.9914 35.3526 58.9914C36.1693 58.9914 36.8269 59.6596 36.8269 60.4657C36.8269 61.2717 36.1587 61.9399 35.3526 61.9399C34.5466 61.9399 33.8784 61.2717 33.8784 60.4657C33.8784 59.9566 33.4647 59.5323 32.9451 59.5323C32.4254 59.5323 32.0117 59.946 32.0117 60.4657C32.0117 61.9823 33.0299 63.2445 34.4193 63.6475V64.3263C34.4193 64.8354 34.8329 65.2596 35.3526 65.2596C35.8723 65.2596 36.286 64.846 36.286 64.3263V63.6475C37.6754 63.2445 38.6935 61.9717 38.6935 60.4657C38.6935 58.6308 37.1981 57.1354 35.3632 57.1354C34.5466 57.1354 33.889 56.4672 33.889 55.6611C33.889 54.8551 34.5466 54.1869 35.3632 54.1869Z" fill="white"/>
</svg>
